<svg xmlns="http://www.w3.org/2000/svg" viewBox="0 0 1120 280" role="img" aria-labelledby="title desc">
  <title id="title">MachTable</title>
  <desc id="desc">MachTable enterprise data grid logo.</desc>
  <defs>
    <linearGradient id="banner" x1="0" y1="0" x2="1120" y2="280" gradientUnits="userSpaceOnUse">
      <stop stop-color="#071027"/>
      <stop offset=".58" stop-color="#0A1635"/>
      <stop offset="1" stop-color="#101A40"/>
    </linearGradient>
    <linearGradient id="surface" x1="40" y1="22" x2="248" y2="258" gradientUnits="userSpaceOnUse">
      <stop stop-color="#111C44"/>
      <stop offset="1" stop-color="#071027"/>
    </linearGradient>
    <linearGradient id="signal" x1="84" y1="88" x2="224" y2="198" gradientUnits="userSpaceOnUse">
      <stop stop-color="#39D9FF"/>
      <stop offset=".5" stop-color="#4D8DFF"/>
      <stop offset="1" stop-color="#8B5CFF"/>
    </linearGradient>
    <linearGradient id="word" x1="296" y1="72" x2="946" y2="205" gradientUnits="userSpaceOnUse">
      <stop stop-color="#EAF7FF"/>
      <stop offset="1" stop-color="#AFC4F8"/>
    </linearGradient>
    <filter id="shadow" x="-30%" y="-30%" width="160%" height="170%">
      <feDropShadow dx="0" dy="12" stdDeviation="16" flood-color="#020617" flood-opacity=".34"/>
    </filter>
  </defs>

  <rect width="1120" height="280" rx="38" fill="url(#banner)"/>
  <circle cx="1010" cy="-18" r="210" fill="#356DFF" opacity=".08"/>
  <circle cx="760" cy="320" r="230" fill="#18D4FF" opacity=".035"/>
  <rect x="24" y="20" width="240" height="240" rx="62" fill="url(#surface)" filter="url(#shadow)"/>
  <path d="M46 98h38M40 128h44M50 158h34" stroke="#46CFFF" stroke-linecap="round" stroke-width="7" opacity=".28"/>
  <rect x="78" y="64" width="150" height="154" rx="22" fill="#FFFFFF" fill-opacity=".035" stroke="#88CFFF" stroke-opacity=".35" stroke-width="2"/>
  <g stroke="#B4C7FF" stroke-opacity=".13" stroke-width="2">
    <path d="M79 106h148M79 148h148M79 190h148"/>
    <path d="M128 65v152M178 65v152"/>
  </g>
  <path d="M96 188V94l40 55 40-55v94" fill="none" stroke="url(#signal)" stroke-width="13" stroke-linecap="round" stroke-linejoin="round"/>
  <path d="M192 95h20M192 118h20M192 141h20M192 164h20M192 187h20" stroke="#94ADFF" stroke-width="5" stroke-linecap="round" opacity=".62"/>

  <text x="310" y="150" fill="url(#word)" font-family="Inter, ui-sans-serif, system-ui, -apple-system, Segoe UI, sans-serif" font-size="94" font-weight="760" letter-spacing="-4">MachTable</text>
  <rect x="316" y="177" width="88" height="6" rx="3" fill="#37D6FF"/>
  <rect x="414" y="177" width="56" height="6" rx="3" fill="#4B8DFF"/>
  <rect x="480" y="177" width="34" height="6" rx="3" fill="#855FFF"/>
  <text x="316" y="220" fill="#7185B6" font-family="Inter, ui-sans-serif, system-ui, -apple-system, Segoe UI, sans-serif" font-size="22" font-weight="650" letter-spacing="5.5">ENTERPRISE DATA GRID</text>
</svg>
